<?xml version="1.0" encoding="UTF-8"?>
<!DOCTYPE svg PUBLIC "-//W3C//DTD SVG 1.1//EN" "http://www.w3.org/Graphics/SVG/1.1/DTD/svg11.dtd">
<svg version="1.1" xmlns="http://www.w3.org/2000/svg" xmlns:xlink="http://www.w3.org/1999/xlink" x="0" y="0" width="20" height="20.063" viewBox="0, 0, 20, 20.063">
  <g id="Home_Page" transform="translate(-828.068, 949.366)">
    <path d="M838.074,-936.321 C838.483,-936.321 838.873,-936.402 839.241,-936.568 C839.608,-936.727 839.925,-936.948 840.19,-937.226 C840.452,-937.501 840.665,-937.821 840.83,-938.191 C840.993,-938.561 841.074,-938.949 841.074,-939.358 C841.074,-939.767 840.993,-940.153 840.83,-940.515 C840.665,-940.874 840.452,-941.191 840.19,-941.469 C839.925,-941.745 839.608,-941.96 839.241,-942.114 C838.873,-942.269 838.483,-942.348 838.074,-942.348 C837.662,-942.348 837.271,-942.269 836.899,-942.114 C836.526,-941.96 836.204,-941.745 835.934,-941.469 C835.661,-941.191 835.448,-940.874 835.291,-940.515 C835.136,-940.153 835.06,-939.767 835.06,-939.358 C835.06,-938.949 835.136,-938.561 835.291,-938.191 C835.448,-937.821 835.661,-937.501 835.934,-937.226 C836.204,-936.948 836.526,-936.727 836.899,-936.568 C837.271,-936.402 837.662,-936.321 838.074,-936.321 M844.651,-942.988 C844.929,-942.526 845.142,-942.012 845.291,-941.443 C845.703,-941.359 846.135,-941.304 846.592,-941.28 C847.048,-941.254 847.473,-941.173 847.866,-941.029 C848,-940.995 848.068,-940.921 848.068,-940.803 L848.068,-937.839 C848.068,-937.74 847.942,-937.651 847.696,-937.572 C847.449,-937.488 847.164,-937.428 846.836,-937.375 C846.511,-937.325 846.193,-937.289 845.884,-937.263 C845.572,-937.239 845.367,-937.218 845.267,-937.2 C845.149,-936.722 844.955,-936.234 844.677,-935.731 C845.136,-935.046 845.645,-934.388 846.196,-933.759 L846.272,-933.57 C846.272,-933.504 846.156,-933.342 845.926,-933.09 C845.695,-932.833 845.435,-932.558 845.142,-932.264 C844.848,-931.973 844.57,-931.71 844.308,-931.48 C844.043,-931.249 843.872,-931.136 843.799,-931.136 C843.78,-931.136 843.67,-931.215 843.466,-931.367 C843.261,-931.522 843.036,-931.695 842.786,-931.884 C842.54,-932.07 842.307,-932.251 842.084,-932.424 C841.863,-932.594 841.722,-932.697 841.664,-932.731 C841.42,-932.597 841.176,-932.482 840.93,-932.384 C840.683,-932.29 840.434,-932.209 840.182,-932.141 C840.166,-932.038 840.143,-931.834 840.114,-931.519 C840.085,-931.204 840.043,-930.887 839.993,-930.564 C839.944,-930.242 839.886,-929.951 839.82,-929.694 C839.752,-929.431 839.663,-929.303 839.555,-929.303 L836.579,-929.303 C836.461,-929.303 836.382,-929.376 836.34,-929.515 C836.222,-929.927 836.143,-930.36 836.104,-930.808 C836.059,-931.259 836.015,-931.689 835.965,-932.104 C835.454,-932.253 834.963,-932.463 834.496,-932.731 C834.15,-932.468 833.812,-932.219 833.479,-931.973 C833.143,-931.724 832.813,-931.461 832.487,-931.186 L832.335,-931.136 C832.286,-931.136 832.131,-931.249 831.871,-931.48 C831.612,-931.71 831.341,-931.973 831.061,-932.264 C830.78,-932.558 830.526,-932.833 830.295,-933.09 C830.064,-933.342 829.949,-933.504 829.949,-933.57 C829.949,-933.588 830.017,-933.698 830.151,-933.903 C830.284,-934.108 830.442,-934.333 830.623,-934.574 C830.801,-934.818 830.977,-935.052 831.15,-935.272 C831.32,-935.495 831.431,-935.639 831.483,-935.707 C831.205,-936.166 830.993,-936.68 830.843,-937.249 C830.416,-937.336 829.978,-937.386 829.529,-937.412 C829.081,-937.438 828.661,-937.522 828.268,-937.664 C828.134,-937.698 828.068,-937.774 828.068,-937.892 L828.068,-940.855 C828.068,-940.955 828.194,-941.044 828.451,-941.123 C828.706,-941.202 828.992,-941.27 829.309,-941.317 C829.629,-941.367 829.938,-941.406 830.24,-941.43 C830.539,-941.456 830.741,-941.477 830.843,-941.495 C830.993,-942.004 831.197,-942.495 831.457,-942.961 C830.995,-943.649 830.494,-944.307 829.949,-944.934 L829.862,-945.12 C829.862,-945.188 829.98,-945.351 830.214,-945.605 C830.447,-945.859 830.709,-946.135 830.998,-946.429 C831.289,-946.72 831.567,-946.979 831.834,-947.21 C832.102,-947.441 832.27,-947.559 832.335,-947.559 C832.351,-947.559 832.464,-947.48 832.668,-947.325 C832.873,-947.171 833.101,-946.998 833.353,-946.811 C833.602,-946.623 833.841,-946.442 834.061,-946.271 C834.284,-946.101 834.42,-945.996 834.47,-945.964 C834.711,-946.098 834.958,-946.208 835.204,-946.297 C835.451,-946.384 835.705,-946.468 835.965,-946.552 C835.965,-946.651 835.976,-946.859 836.002,-947.171 C836.028,-947.478 836.065,-947.792 836.115,-948.11 C836.164,-948.427 836.23,-948.718 836.309,-948.978 C836.387,-949.235 836.479,-949.366 836.579,-949.366 L839.555,-949.366 C839.671,-949.366 839.752,-949.303 839.794,-949.177 C839.894,-948.768 839.964,-948.338 840.006,-947.884 C840.048,-947.43 840.106,-946.987 840.182,-946.552 C840.442,-946.486 840.691,-946.408 840.93,-946.316 C841.168,-946.221 841.404,-946.103 841.638,-945.964 C841.706,-946.012 841.848,-946.124 842.065,-946.297 C842.283,-946.468 842.516,-946.649 842.763,-946.838 C843.009,-947.024 843.232,-947.192 843.429,-947.339 C843.626,-947.485 843.749,-947.559 843.799,-947.559 C843.849,-947.559 844.003,-947.441 844.263,-947.21 C844.523,-946.979 844.795,-946.72 845.079,-946.429 C845.364,-946.135 845.621,-945.859 845.852,-945.605 C846.08,-945.351 846.196,-945.188 846.196,-945.12 C846.196,-945.088 846.122,-944.968 845.978,-944.763 C845.831,-944.559 845.669,-944.336 845.488,-944.092 C845.307,-943.851 845.131,-943.617 844.958,-943.394 C844.787,-943.174 844.685,-943.037 844.651,-942.988" fill="#FFFFFF"/>
  </g>
</svg>
