<?xml version="1.0" encoding="UTF-8"?>
<!DOCTYPE svg PUBLIC "-//W3C//DTD SVG 1.1//EN" "http://www.w3.org/Graphics/SVG/1.1/DTD/svg11.dtd">
<svg version="1.1" xmlns="http://www.w3.org/2000/svg" xmlns:xlink="http://www.w3.org/1999/xlink" x="0" y="0" width="20" height="19.997" viewBox="0, 0, 20, 19.997">
  <g id="Home_Page" transform="translate(-3716, -209.588)">
    <path d="M3735.543,211.503 C3735.848,211.804 3736,212.172 3736,212.601 C3736,213.034 3735.848,213.393 3735.543,213.689 L3733.996,215.237 L3730.349,211.592 L3731.899,210.042 C3732.201,209.74 3732.565,209.588 3732.992,209.588 C3733.416,209.588 3733.783,209.74 3734.085,210.042 L3734.828,210.76 z M3729.41,215.59 C3729.587,215.416 3729.587,215.228 3729.41,215.03 C3729.326,214.943 3729.228,214.899 3729.119,214.899 C3729.01,214.899 3728.921,214.943 3728.853,215.03 L3719.867,223.988 C3719.78,224.075 3719.737,224.171 3719.737,224.279 C3719.737,224.388 3719.78,224.486 3719.867,224.573 C3719.938,224.644 3720.033,224.676 3720.156,224.676 C3720.259,224.676 3720.349,224.644 3720.427,224.573 z M3732.718,216.515 L3721.442,227.801 L3716,229.585 L3717.787,224.143 L3729.073,212.868 z" fill="#DADADA"/>
  </g>
</svg>
